<svg viewBox="0 0 313 87" xmlns="http://www.w3.org/2000/svg"><g fill="none" fill-rule="evenodd"><rect fill="#fff" height="83" rx="20" stroke="#464342" stroke-width="4" width="308" x="2.657895" y="2"/><g fill-rule="nonzero"><g fill="#207196" transform="translate(25.157895 14)"><path d="m4.26420299 29.9982861c0 10.1864895 5.91983811 18.9896104 14.50406851 23.1612624l-12.27598817-33.6347091c-1.42793017 3.2006007-2.22808034 6.7425139-2.22808034 10.4734467z"/><path d="m47.3724159 28.6996336c0-3.1805235-1.1424421-5.3831401-2.1223078-7.0975377-1.3045288-2.1198593-2.5272797-3.9150555-2.5272797-6.0349148 0-2.3656827 1.7942168-4.5678095 4.3214965-4.5678095.1140973 0 .2223184.0142009.3334775.0205669-4.5785826-4.19466734-10.6786259-6.75573551-17.3785369-6.75573551-8.9906715 0-16.9006015 4.61286084-21.50219955 11.59972901.60378529.0181185 1.17280273.0308504 1.65612475.0308504 2.6918149 0 6.85857-.3266219 6.85857-.3266219 1.387286-.0817779 1.5508418 1.9558138.1650248 2.1198593 0 0-1.3941417.1640455-2.9454732.2453337l9.3716487 27.8754886 5.6319015-16.8908077-4.0095652-10.9856603c-1.385817-.0812882-2.6986705-.2453337-2.6986705-.2453337-1.3867964-.0812882-1.22422-2.2016372.1625764-2.1198593 0 0 4.250002.3266219 6.7787508.3266219 2.6913252 0 6.8585699-.3266219 6.8585699-.3266219 1.3882655-.0817779 1.5513316 1.9558138.1650249 2.1198593 0 0-1.3970798.1640455-2.9454732.2453337l9.3001542 27.6644331 2.5669444-8.5778644c1.1125711-3.559542 1.9592417-6.116203 1.9592417-8.3193092z"/><path d="m30.4507578 32.2493818-7.7214002 22.4370139c2.3054511.6777281 4.7436075 1.0484219 7.2699079 1.0484219 2.9968904 0 5.8708692-.5180899 8.5460347-1.4587805-.069046-.1101798-.131726-.2272152-.1831433-.3545341z"/><path d="m52.5807373 17.6512932c.1106695.8197377.1733496 1.699707.1733496 2.6462739 0 2.611506-.4877293 5.5471855-1.9567932 9.2178866l-7.8609613 22.7278886c7.6508851-4.4615473 12.7970163-12.7504958 12.7970163-22.2445665.0004896-4.4742792-1.1424422-8.6816783-3.1526114-12.3474826z"/><path d="m29.9992655 0c-16.5411705 0-29.9992655 13.4571156-29.9992655 29.9982861 0 16.5431293 13.458095 29.9997551 29.9992655 29.9997551 16.5406808 0 30.0007345-13.4566258 30.0007345-29.9997551 0-16.5411705-13.4600537-29.9982861-30.0007345-29.9982861zm0 58.6229974c-15.7826439 0-28.62373194-12.8410881-28.62373194-28.6247113 0-15.7826438 12.84059844-28.62275254 28.62373194-28.62275254 15.7821541 0 28.6222628 12.84010874 28.6222628 28.62275254 0 15.7836232-12.8401087 28.6247113-28.6222628 28.6247113z"/></g><g transform="translate(107.000001 49)"><path d="m81.7500753 4.79166667h-9.3217295v.98368273c2.9157539 0 3.3845373.62161769 3.3845373 4.2998495v6.631025c0 3.6777956-.4683449 4.3513238-3.3845373 4.3513238-2.2386709-.3105907-3.7493901-1.5023518-5.8323847-3.7816167l-2.3952244-2.5898556c3.2284223-.5705796 4.9465638-2.5902918 4.9465638-4.86999289 0-2.84853581-2.4469704-5.02441584-7.0299969-5.02441584h-9.1651759v.98368273c2.9157538 0 3.3845372.62161769 3.3845372 4.2998495v6.631025c0 3.6777956-.4687834 4.3513238-3.3845372 4.3513238v.984119h10.3627881v-.984119c-2.9157538 0-3.3845372-.6735282-3.3845372-4.3513238v-1.8644169h.8849438l5.7806387 7.1998597h15.1541142c7.4465958 0 10.6754566-3.9364759 10.6754566-8.6511734 0-4.71382512-3.2284223-8.59882663-10.6754566-8.59882663zm-21.8192582 8.44309503v-6.88883269h2.1347406c2.3430399 0 3.3849757 1.60573665 3.3849757 3.47058972 0 1.81337877-1.0419358 3.41867917-3.3849757 3.41867917h-2.1347406zm21.9758117 7.2011683h-.364853c-1.8742565 0-2.1347405-.4658861-2.1347405-2.848972v-11.24102899h2.4995935c5.4157858 0 6.40466 3.93647579 6.40466 6.99308999 0 3.1595627-.9893128 7.096911-6.40466 7.096911z" fill="#00749a"/><path d="m23.9138156 15.3337637 3.6345558-10.42723476c1.0539058-3.01536331.5797369-3.88390501-2.7913424-3.88390501v-1.02262393h9.9025455v1.02262393c-3.3182953 0-4.1082812.76653754-5.4252199 4.49765152l-6.0054004 17.47972455h-.6844178l-5.373323-15.99786673-5.4775603 15.99786673h-.6848613l-5.84660483-17.47972455c-1.26415474-3.73111398-2.10692457-4.49765152-5.16218697-4.49765152v-1.02262393h11.6936531v1.02262393c-3.10804638 0-3.95125977.71532027-2.84456992 3.88390501l3.52898772 10.42723476 5.3200955-15.3337637h1.0011218z" fill="#00749a"/><path d="m41.8803191 23c-5.5597605 0-10.1090425-4.1077979-10.1090425-9.1295788 0-4.97010239 4.5497076-9.07875453 10.1090425-9.07875453 5.5601863 0 10.1090426 4.10865214 10.1090426 9.07875453 0 5.0217809-4.5488563 9.1295788-10.1090426 9.1295788zm0-16.63491603c-4.6497339 0-6.2676063 4.20901943-6.2676063 7.50576433 0 3.3479963 1.6178724 7.5066185 6.2676063 7.5066185 4.7012369 0 6.3186837-4.1586222 6.3186837-7.5066185 0-3.2967449-1.6174468-7.50576433-6.3186837-7.50576433z" fill="#00749a"/><g fill="#464342"><path d="m105.402825 21.0236204v1.0180463h-12.0145271v-1.0180463c3.5154664 0 4.1450429-.8650179 4.1450429-5.9561066v-8.14394172c0-5.09108876-.6295765-5.90509714-4.1450429-5.90509714v-1.01847494h10.8600831c5.403754 0 8.395236 2.69792983 8.395236 6.31274431 0 3.51236686-2.991482 6.26087749-8.395236 6.26087749h-2.990599v2.4934633c0 5.0915174.629577 5.9565353 4.145043 5.9565353zm-1.154444-19.19113708h-2.990599v8.85764568h2.990599c2.938465 0 4.302326-1.98508307 4.302326-4.37738469 0-2.4433111-1.363861-4.48026099-4.302326-4.48026099z"/><path d="m147.499537 17.1725462-.25533.9322084c-.459079 1.7095577-1.021321 2.3311754-4.645377 2.3311754h-.714839c-2.653887 0-3.113395-.6216177-3.113395-4.2994133v-2.3826497c3.98169 0 4.288172.362065 4.288172 3.0561779h.969739v-7.71896492h-.969739c0 2.69367662-.306482 3.05617792-4.288172 3.05617792v-5.80132889h2.806913c3.624916 0 4.185868.62161769 4.645377 2.3311754l.25576.98368273h.816283l-.356775-4.86912047h-15.007743v.98368273c2.858065 0 3.318003.62161769 3.318003 4.2998495v6.631025c0 3.3645875-.390303 4.2121687-2.644 4.3330024-2.141937-.3319656-3.61245-1.5176196-5.624573-3.7632953l-2.348264-2.5898556c3.164977-.5705796 4.849555-2.5902918 4.849555-4.86999289 0-2.84853581-2.398987-5.02441584-6.890908-5.02441584h-8.983841v.98368273c2.858065 0 3.317574.62161769 3.317574 4.2998495v6.631025c0 3.6777956-.459079 4.3513238-3.317574 4.3513238v.984119h10.158189v-.984119c-2.858066 0-3.318004-.6735282-3.318004-4.3513238v-1.8644169h.867865l5.665838 7.1998597h20.979204l.306482-4.8686843h-.76642zm-27.053399-3.9377845v-6.88883269h2.092505c2.297112 0 3.318433 1.60573665 3.318433 3.47058972 0 1.81337877-1.021321 3.41867917-3.318433 3.41867917h-2.092505z"/><path d="m158.451169 23c-2.026893 0-3.800745-1.0647724-4.560723-1.7246493-.253468.2541274-.709199 1.0148011-.810331 1.7246493h-.963094v-6.9985398h1.013447c.405805 3.3472206 2.736092 5.3251431 5.726079 5.3251431 1.621514 0 2.939208-.9127231 2.939208-2.4340705 0-1.3184726-1.165357-2.3332737-3.243028-3.2968222l-2.88843-1.3692981c-2.027319-.9644027-3.547276-2.6382266-3.547276-4.86942225 0-2.43449756 2.280362-4.5136439 5.422259-4.5136439 1.672293 0 3.090692.60862439 3.952655 1.31847263.253041-.2028748.50651-.76110082.658847-1.37015231h.962667v5.98544713h-1.064225c-.355027-2.38409916-1.672294-4.36202165-4.357607-4.36202165-1.418825 0-2.736946.81149918-2.736946 2.08000054 0 1.31847263 1.064226 2.02832091 3.496924 3.14434581l2.786445 1.3692981c2.432698 1.1664233 3.394939 3.0439762 3.394939 4.5653236 0 3.1947441-2.786871 5.4259398-6.18181 5.4259398z"/><path d="m174.818616 23c-2.027319 0-3.801171-1.0647724-4.560722-1.7246493-.253468.2541274-.709199 1.0148011-.810331 1.7246493h-.963094v-6.9985398h1.013447c.405378 3.3472206 2.736092 5.3251431 5.726079 5.3251431 1.621514 0 2.939208-.9127231 2.939208-2.4340705 0-1.3184726-1.165357-2.3332737-3.243455-3.2968222l-2.888429-1.3692981c-2.026893-.9644027-3.547276-2.6382266-3.547276-4.86942225 0-2.43449756 2.280361-4.5136439 5.422258-4.5136439 1.672294 0 3.090692.60862439 3.952655 1.31847263.253042-.2028748.50651-.76110082.657993-1.37015231h.963095v5.98544713h-1.063799c-.355026-2.38409916-1.672294-4.36202165-4.357607-4.36202165-1.418825 0-2.736945.81149918-2.736945 2.08000054 0 1.31847263 1.064225 2.02832091 3.496923 3.14434581l2.786445 1.3692981c2.432698 1.1664233 3.394939 3.0439762 3.394939 4.5653236 0 3.1947441-2.786871 5.4259398-6.181384 5.4259398z"/></g></g><g fill="#464342" transform="translate(106.832032 16.811035)"><path d="m16.4399414 11.6396484c0 2.3317058-.4248047 4.2787273-1.2744141 5.8410645-.8496093 1.5623372-2.0791829 2.7376302-3.6887207 3.5258789-1.60953772.7882487-3.56127926 1.182373-5.85522457 1.182373h-5.62158203v-20.70214839h6.24462891c2.10514323 0 3.91764319.38468424 5.43749999 1.15405273s2.6927897 1.90690104 3.5187988 3.41259766c.8260091 1.50569661 1.2390137 3.36775716 1.2390137 5.5861816zm-2.534668.084961c0-1.85970055-.3091634-3.39371747-.9274902-4.60205081-.6183268-1.20833333-1.5245768-2.10750325-2.71875-2.69750976-1.19417317-.59000651-2.65502929-.88500977-4.38256836-.88500977h-3.46923828v16.58154294h2.93115235c2.85091145 0 4.99145509-.7032877 6.42163089-2.1098632 1.4301757-1.4065756 2.1452636-3.5022787 2.1452636-6.2871094z"/><path d="m34.0693359 14.4008789c0 1.2744141-.1652018 2.4119466-.4956054 3.4125977-.3304037 1.000651-.8071289 1.8455403-1.4301758 2.5346679s-1.3758952 1.2154134-2.2585449 1.5788575c-.8826498.363444-1.8809408.545166-2.9948731.545166-1.0384114 0-1.9895019-.181722-2.8532715-.545166-.8637695-.3634441-1.6095377-.8897299-2.2373047-1.5788575-.6277669-.6891276-1.1139322-1.5340169-1.458496-2.5346679-.3445638-1.0006511-.5168457-2.1381836-.5168457-3.4125977 0-1.6992187.2879231-3.1459147.8637695-4.3400879.5758463-1.19417316 1.3994954-2.10514321 2.4709472-2.73291014 1.0714519-.62776693 2.348226-.94165039 3.8303223-.94165039 1.4160156 0 2.6550293.31624349 3.717041.94873047s1.8880209 1.54581705 2.4780274 2.73999026c.5900065 1.1941731.8850097 2.6361491.8850097 4.3259277zm-11.8095703 0c0 1.2460938.1652018 2.3269857.4956055 3.2426758.3304036.9156901.8401693 1.6236979 1.5292969 2.1240234s1.5764974.7504883 2.6621093.7504883c1.0761719 0 1.9611817-.2501628 2.6550293-.7504883.6938477-.5003255 1.2059733-1.2083333 1.536377-2.1240234.3304036-.9156901.4956055-1.996582.4956055-3.2426758 0-1.2366536-.1652019-2.3057454-.4956055-3.2072754-.3304037-.9015299-.8401693-1.59773761-1.5292969-2.08862303s-1.5812174-.73632813-2.6762695-.73632813c-1.6142578 0-2.7966309.53336589-3.5471192 1.60009766-.7504882 1.0667318-1.1257324 2.5441081-1.1257324 4.4321289z"/><path d="m50.7641602 22.1606445-2.7612305-9.0341797c-.1227214-.3870442-.2383626-.7670084-.3469238-1.1398925s-.2076823-.7316081-.2973633-1.0761719-.1699219-.6655274-.2407227-.96289063c-.0708008-.29736329-.1298014-.55460612-.1770019-.77172852h-.0991211c-.0377604.2171224-.089681.47436523-.1557617.77172852-.0660808.29736323-.1439616.62068683-.2336426.96997073-.089681.3492838-.1864421.7150879-.2902832 1.0974121-.1038412.3823242-.2218425.7670084-.3540039 1.1540527l-2.8886719 8.9916992h-2.6479492l-4.2763672-15.51953122h2.4355469l2.2373047 8.56689452c.1510416.5664063.2950032 1.1257324.4318847 1.6779785s.2548828 1.0714519.3540039 1.5576172c.0991211.4861654.1722819.90861.2194824 1.267334h.1132813c.0566406-.2360026.1203613-.5192057.1911621-.8496094.0708008-.3304036.1510417-.6820475.2407227-1.0549316.0896809-.3728841.186442-.7457682.2902832-1.1186524.1038411-.3728841.2076823-.724528.3115234-1.0549316l2.8603516-8.99169922h2.5346679l2.7612305 8.97753902c.1416016.453125.2808431.9251303.4177246 1.4160157s.2619629.9652506.3752441 1.4230957c.1132813.457845.1935222.8661295.2407227 1.2248535h.1132813c.0377604-.3209636.1085612-.7174479.2124023-1.1894531s.2242025-.991211.361084-1.5576172c.1368815-.5664063.2808431-1.1422526.4318847-1.7275391l2.265625-8.56689452h2.3930665l-4.2905274 15.51953122z"/><path d="m67.9545898 6.38623047c1.8408204 0 3.2332357.45076497 4.1772461 1.35229492.9440105.90152995 1.4160157 2.34822591 1.4160157 4.34008791v10.1103515h-2.3222657v-9.9545898c0-1.2932943-.2950032-2.26090495-.8850097-2.90283203s-1.4938965-.96289063-2.71167-.96289063c-1.7180989 0-2.9264322.48616537-3.625 1.4584961-.6985677.97233076-1.0478515 2.38362626-1.0478515 4.23388676v8.1279296h-2.3505859v-15.51953121h1.8974609l.3540039 2.23730469h.1274414c.3304036-.54752604.7504883-1.00773112 1.2602539-1.38061523.5097656-.37288412 1.0808919-.65608724 1.7133789-.84960938.632487-.19352213 1.2980143-.2902832 1.996582-.2902832z"/><path d="m80.7553711 22.1889648h-2.3647461v-22.03320308h2.3647461z"/><path d="m99.0927734 14.4008789c0 1.2744141-.1652018 2.4119466-.4956054 3.4125977-.3304037 1.000651-.8071289 1.8455403-1.4301758 2.5346679s-1.3758952 1.2154134-2.2585449 1.5788575c-.8826498.363444-1.8809408.545166-2.9948731.545166-1.0384114 0-1.9895019-.181722-2.8532715-.545166-.8637695-.3634441-1.6095377-.8897299-2.2373047-1.5788575-.6277669-.6891276-1.1139322-1.5340169-1.458496-2.5346679-.3445638-1.0006511-.5168458-2.1381836-.5168458-3.4125977 0-1.6992187.2879232-3.1459147.8637696-4.3400879.5758463-1.19417316 1.3994954-2.10514321 2.4709472-2.73291014 1.0714519-.62776693 2.348226-.94165039 3.8303223-.94165039 1.4160156 0 2.6550293.31624349 3.717041.94873047s1.8880209 1.54581705 2.4780274 2.73999026c.5900065 1.1941731.8850097 2.6361491.8850097 4.3259277zm-11.8095703 0c0 1.2460938.1652018 2.3269857.4956055 3.2426758.3304036.9156901.8401693 1.6236979 1.5292969 2.1240234s1.5764974.7504883 2.6621093.7504883c1.0761719 0 1.9611817-.2501628 2.6550293-.7504883.6938477-.5003255 1.2059733-1.2083333 1.536377-2.1240234.3304036-.9156901.4956055-1.996582.4956055-3.2426758 0-1.2366536-.1652019-2.3057454-.4956055-3.2072754-.3304037-.9015299-.8401693-1.59773761-1.5292969-2.08862303s-1.5812174-.73632813-2.6762695-.73632813c-1.6142578 0-2.7966309.53336589-3.5471192 1.60009766-.7504882 1.0667318-1.1257324 2.5441081-1.1257324 4.4321289z"/><path d="m108.962402 6.41455078c1.850261 0 3.223796.41536458 4.120606 1.24609375s1.345215 2.1570638 1.345215 3.97900387v10.5493164h-1.713379l-.453125-2.2939453h-.113281c-.434245.5664063-.88737 1.0407715-1.359376 1.4230957-.472005.3823243-1.017171.6702474-1.635498.8637696-.618326.1935221-1.375895.2902832-2.272705.2902832-.94401 0-1.781819-.1652019-2.513427-.4956055s-1.307455-.8307292-1.727539-1.5009766c-.420085-.6702474-.630127-1.5198567-.630127-2.5488281 0-1.5481771.613606-2.7376302 1.84082-3.5683594 1.227213-.8307291 3.096354-1.2838541 5.607422-1.359375l2.676269-.1132812v-.9487305c0-1.3404948-.287923-2.27978514-.863769-2.81787108-.575847-.53808593-1.387696-.8071289-2.435547-.8071289-.811849 0-1.585938.1180013-2.322266.3540039-.736328.23600261-1.434896.51448568-2.095703.83544922l-.722168-1.78417968c.698568-.35872396 1.500977-.66552735 2.407227-.92041016s1.8597-.38232422 2.860351-.38232422zm3.143555 8.12792972-2.364746.0991211c-1.935221.0755208-3.299316.3917643-4.092285.9487304-.792969.5569662-1.189453 1.3452149-1.189453 2.3647461 0 .8873698.269043 1.5434571.807129 1.9682617.538086.4248047 1.250813.6372071 2.138183.6372071 1.378255 0 2.506348-.3823242 3.384277-1.1469727.87793-.7646484 1.316895-1.9116211 1.316895-3.440918z"/><path d="m124.793457 22.472168c-1.963542 0-3.518799-.6702474-4.665771-2.0107422-1.146973-1.3404948-1.720459-3.3323568-1.720459-5.975586 0-2.6715494.585286-4.6893717 1.755859-6.05346675 1.170573-1.36409506 2.72819-2.04614258 4.672852-2.04614258.821289 0 1.538736.1085612 2.152343.32568359.613607.2171224 1.142253.5074056 1.585938.87084961s.816569.77644857 1.118652 1.23901367h.169922c-.03776-.29264323-.075521-.69384765-.113281-1.20361328-.037761-.50976562-.056641-.92513021-.056641-1.24609375v-6.21630859h2.350586v22.03320308h-1.897461l-.354004-2.2089843h-.099121c-.292643.4625651-.663167.8826497-1.111572 1.2602539-.448405.3776041-.981771.6773274-1.600098.8991699-.618327.2218424-1.347575.3327637-2.187744.3327637zm.368164-1.9541016c1.661458 0 2.836751-.4720052 3.525879-1.4160156s1.033691-2.3458659 1.033691-4.2055664v-.4248047c0-1.9729818-.328043-3.4881185-.98413-4.54541017-.656088-1.05729167-1.847901-1.5859375-3.57544-1.5859375-1.444336 0-2.525228.55460612-3.242676 1.66381837-.717448 1.1092122-1.076172 2.6219889-1.076172 4.5383301 0 1.906901.356364 3.3795573 1.069092 4.4179687.712728 1.0384115 1.79598 1.5576172 3.249756 1.5576172z"/><path d="m151.457031 8.51025391h-3.865722v13.67871089h-2.350586v-13.67871089h-2.747071v-1.1328125l2.747071-.7788086v-1.0336914c0-1.30273438.193522-2.36238607.580566-3.17895508s.948731-1.41837565 1.685059-1.80541992 1.633138-.58056641 2.690429-.58056641c.594727 0 1.139893.05192057 1.635498.15576172.495606.10384115.932211.22184245 1.309815.35400391l-.608887 1.85498046c-.320963-.10384114-.682047-.20060221-1.083252-.2902832-.401204-.08968099-.809489-.13452148-1.224853-.13452148-.89681 0-1.559978.2902832-1.989502.87084961-.429525.5805664-.644287 1.48917643-.644287 2.72583007v1.1328125h3.865722z"/><path d="m167.68457 14.4008789c0 1.2744141-.165202 2.4119466-.495605 3.4125977-.330404 1.000651-.807129 1.8455403-1.430176 2.5346679s-1.375895 1.2154134-2.258545 1.5788575c-.88265.363444-1.880941.545166-2.994873.545166-1.038411 0-1.989502-.181722-2.853271-.545166-.86377-.3634441-1.609538-.8897299-2.237305-1.5788575s-1.113932-1.5340169-1.458496-2.5346679c-.344564-1.0006511-.516846-2.1381836-.516846-3.4125977 0-1.6992187.287923-3.1459147.86377-4.3400879.575846-1.19417316 1.399495-2.10514321 2.470947-2.73291014s2.348226-.94165039 3.830322-.94165039c1.416016 0 2.655029.31624349 3.717041.94873047s1.888021 1.54581705 2.478028 2.73999026c.590006 1.1941731.885009 2.6361491.885009 4.3259277zm-11.80957 0c0 1.2460938.165202 2.3269857.495605 3.2426758.330404.9156901.84017 1.6236979 1.529297 2.1240234.689128.5003255 1.576498.7504883 2.66211.7504883 1.076172 0 1.961181-.2501628 2.655029-.7504883s1.205973-1.2083333 1.536377-2.1240234.495605-1.996582.495605-3.2426758c0-1.2366536-.165201-2.3057454-.495605-3.2072754-.330404-.9015299-.840169-1.59773761-1.529297-2.08862303s-1.581217-.73632813-2.676269-.73632813c-1.614258 0-2.796631.53336589-3.54712 1.60009766-.750488 1.0667318-1.125732 2.5441081-1.125732 4.4321289z"/><path d="m178.800293 6.38623047c.311523 0 .637207.01652018.977051.04956055.339844.03304036.641927.07788086.90625.13452148l-.297364 2.18066406c-.254882-.06608073-.538085-.1180013-.849609-.15576172-.311523-.03776041-.604167-.05664062-.87793-.05664062-.623046 0-1.210693.12508138-1.762939.37524414s-1.036051.60888672-1.451416 1.07617187c-.415365.46728517-.741048 1.02897137-.977051 1.68505857-.236002.6560873-.354004 1.3853353-.354004 2.1877442v8.3261718h-2.364746v-15.51953121h1.954102l.254883 2.86035157h.099121c.320963-.57584636.708007-1.10213217 1.161132-1.57885743s.979411-.85668945 1.578858-1.13989257c.599446-.28320313 1.267334-.42480469 2.003662-.42480469z"/></g></g></g></svg>